<svg xmlns="http://www.w3.org/2000/svg" xmlns:cc="http://web.resource.org/cc/" xmlns:ns1="http://sozi.baierouge.fr" xmlns:xlink="http://www.w3.org/1999/xlink" id="レイヤー_1" x="0" y="0" version="1.1" viewBox="0 0 907.1 907.1" style="enable-background:new 0 0 907.1 907.1" xml:space="preserve"><style type="text/css">.st0,.st1{fill:url(#SVGID_1_);stroke:#000;stroke-width:40;stroke-linecap:round;stroke-linejoin:round}.st1{fill:#ffff80}.st2{fill:#fff}.st3{fill:#17ff24;stroke:#000;stroke-width:40;stroke-linecap:round;stroke-linejoin:round}</style><linearGradient id="SVGID_1_" x1="56.6" x2="623.4" y1="397.85" y2="397.85" gradientTransform="matrix(1 0 0 -1 0 908)" gradientUnits="userSpaceOnUse"><stop offset="0" style="stop-color:#ffff83"/><stop offset="1" style="stop-color:#000"/></linearGradient><path d="M56.6,141.6v623.7c0,62.6,127,113.4,283.4,113.4s283.4-50.8,283.4-113.4V141.6H56.6z" class="st0"/><ellipse cx="340.2" cy="141.6" class="st1" rx="283.4" ry="113.4"/><path d="M646,209.6L433.6,422c-16.1,15.8-24.9,37.2-24.9,60.1c0,22.6,8.9,44,24.9,60L646,754.3V209.6z" class="st2"/><path d="M708.7,396.8c0-10.2,0-20.6,0-28.4V255c0-15.6-9-19.4-20-8.4l-215,215.2c-11,11-11,29,0,40l215,215	c11,11,20,7.2,20-8.4V595.1c0-7.8,0-18,0-28.4h141.8v-170H708.7V396.8z" class="st3"/></svg>