<svg xmlns="http://www.w3.org/2000/svg" xmlns:cc="http://web.resource.org/cc/" xmlns:ns1="http://sozi.baierouge.fr" xmlns:xlink="http://www.w3.org/1999/xlink" id="レイヤー_1" x="0" y="0" version="1.1" viewBox="0 0 907.1 907.1" style="enable-background:new 0 0 907.1 907.1" xml:space="preserve"><style type="text/css">.st0{fill:none;stroke-width:160;stroke-linecap:round;stroke-linejoin:round}.st0,.st1{stroke:#00512e}.st1,.st2,.st3{stroke-linecap:round;stroke-linejoin:round}.st1{fill:#00512e;stroke-width:100}.st2,.st3{fill:none;stroke:#adffcb;stroke-width:80}.st3{fill:#adffcb;stroke-width:20}</style><g><g><path d="M90.7,453.6c0-200.4,162.4-362.8,362.8-362.8c134.3,0,251.6,73,314.3,181.4" class="st0"/><polygon points="571.5 293.1 813.8 74 802.2 304.6" class="st1"/></g><g><path d="M816.4,453.5c0,200.4-162.4,362.8-362.8,362.8c-134.3,0-251.6-73-314.3-181.4" class="st0"/><polygon points="335.6 614 93.3 833.1 104.9 602.5" class="st1"/></g></g><g><g><path d="M90.7,453.6c0-200.4,162.4-362.8,362.8-362.8c134.3,0,251.6,73,314.3,181.4" class="st2"/><polygon points="571.5 293.1 813.8 74 802.2 304.6" class="st3"/></g><g><path d="M816.4,453.5c0,200.4-162.4,362.8-362.8,362.8c-134.3,0-251.6-73-314.3-181.4" class="st2"/><polygon points="335.6 614 93.3 833.1 104.9 602.5" class="st3"/></g></g></svg>