<svg xmlns="http://www.w3.org/2000/svg" xmlns:cc="http://web.resource.org/cc/" xmlns:ns1="http://sozi.baierouge.fr" xmlns:xlink="http://www.w3.org/1999/xlink" id="レイヤー_1" x="0" y="0" version="1.1" viewBox="0 0 907.1 907.1" style="enable-background:new 0 0 907.1 907.1" xml:space="preserve"><style type="text/css">.st0,.st1{fill:url(#SVGID_1_);stroke:#4d4d4d;stroke-width:40;stroke-linecap:round;stroke-linejoin:round}.st1{fill:url(#SVGID_2_);stroke:#000da2}</style><linearGradient id="SVGID_1_" x1="39.6" x2="867.6" y1="752.84" y2="752.84" gradientTransform="matrix(1 0 0 -1 0 905.89)" gradientUnits="userSpaceOnUse"><stop offset="0" style="stop-color:#ffff80"/><stop offset="1" style="stop-color:#808040"/></linearGradient><path d="M39.6,22.7v136c0,68.9,185.4,124.7,414,124.7s414-55.8,414-124.7v-136" class="st0"/><linearGradient id="SVGID_2_" x1="453.517" x2="453.517" y1="775.543" y2="99.759" gradientTransform="matrix(1 0 0 -1 0 969.89)" gradientUnits="userSpaceOnUse"><stop offset="0" style="stop-color:#fff"/><stop offset="1" style="stop-color:#8be3ff"/></linearGradient><path d="M831.3,453.4H567.9V228.3c0-16.5-13.5-30-30-30H369.6c-16.5,0-30,13.5-30,30v225.2H76.2	c-32.9,0-40.8,19-17.5,42.2l352.4,352.4c23.2,23.2,61.4,23.2,84.7,0l352.4-352.4C871.6,472.4,863.8,453.4,831.3,453.4z" class="st1"/></svg>